<?xml version="1.0" encoding="UTF-8"?>
<svg width="640px" height="640px" viewBox="0 0 640 640" version="1.1" xmlns="http://www.w3.org/2000/svg" xmlns:xlink="http://www.w3.org/1999/xlink">
    <!-- Generator: Sketch 44.1 (41455) - http://www.bohemiancoding.com/sketch -->
    <title>120 copy 2</title>
    <desc>Created with Sketch.</desc>
    <defs></defs>
    <g id="ICON" stroke="none" stroke-width="1" fill="none" fill-rule="evenodd">
        <g id="120-copy-2" fill="#00B3D5">
            <path d="M586.586907,11.4864137 C564.451429,11.4864137 546.507148,29.485624 546.507148,51.6888618 L546.507148,430.740515 C546.507148,452.943752 564.451429,470.942963 586.586907,470.942963 C608.722386,470.942963 626.666667,452.943752 626.666667,430.740515 L626.666667,51.6888618 C626.666667,29.485624 608.722386,11.4864137 586.586907,11.4864137 M409.755008,45.9456549 C387.61953,45.9456549 369.675249,63.9448652 369.675249,86.1481029 L369.675249,258.444309 C369.675249,280.647547 387.61953,298.646757 409.755008,298.646757 C431.890487,298.646757 449.834768,280.647547 449.834768,258.444309 L449.834768,86.1481029 C449.834768,63.9448652 431.890487,45.9456549 409.755008,45.9456549 M232.911658,91.8913098 C210.77618,91.8913098 192.831899,109.89052 192.831899,132.093758 L192.831899,350.335619 C192.831899,372.538856 210.77618,390.538067 232.911658,390.538067 C255.047137,390.538067 272.991418,372.538856 272.991418,350.335619 L272.991418,132.093758 C272.991418,109.89052 255.047137,91.8913098 232.911658,91.8913098 M56.0797595,0 C33.9442809,0 16,17.9992103 16,40.202448 L16,396.281274 C16,418.484511 33.9442809,436.483722 56.0797595,436.483722 C78.2152381,436.483722 96.1595189,418.484511 96.1595189,396.281274 L96.1595189,40.202448 C96.1595189,17.9992103 78.2152381,0 56.0797595,0 M586.586907,559.595104 C564.451429,559.595104 546.507148,577.594314 546.507148,599.797552 C546.507148,622.00079 564.451429,640 586.586907,640 C608.722386,640 626.666667,622.00079 626.666667,599.797552 C626.666667,577.594314 608.722386,559.595104 586.586907,559.595104 M409.755008,389.18267 C387.61953,389.18267 369.675249,407.18188 369.675249,429.385118 C369.675249,451.576869 387.61953,469.587566 409.755008,469.587566 C431.890487,469.587566 449.834768,451.576869 449.834768,429.385118 C449.834768,407.18188 431.890487,389.18267 409.755008,389.18267 M232.911658,507.802864 C210.77618,507.802864 192.831899,525.802075 192.831899,548.005312 C192.831899,570.220037 210.77618,588.207761 232.911658,588.207761 C255.047137,588.207761 272.991418,570.220037 272.991418,548.005312 C272.991418,525.802075 255.047137,507.802864 232.911658,507.802864 M56.0797595,548.728957 C33.9442809,548.728957 16,566.739653 16,588.931405 C16,611.146129 33.9442809,629.133853 56.0797595,629.133853 C78.2152381,629.133853 96.1595189,611.146129 96.1595189,588.931405 C96.1595189,566.739653 78.2152381,548.728957 56.0797595,548.728957" id="Fill-1"></path>
        </g>
    </g>
</svg>